<svg width="128" height="128" viewBox="0 0 128 128" fill="none" xmlns="http://www.w3.org/2000/svg">
<g clip-path="url(#clip0_1_2)">
<circle cx="64" cy="64" r="64" fill="#fff"/>
<g clip-path="url(#clip1_1_2)">
<path d="M42.808 18.1078C44.7763 18.3881 46.5499 19.0278 49.0301 20.3431C50.508 21.1266 51.0199 21.4356 51.9428 22.0753C52.6205 22.5425 53.6154 23.4266 53.5433 23.4984C53.4929 23.5416 52.5124 23.2684 50.3134 22.6C49.4122 22.3341 48.374 22.0322 47.9991 21.9316C46.6148 21.565 44.6177 21.2344 43.7453 21.2344C43.4641 21.2344 43.4569 21.2416 43.4569 21.4788V21.7159L43.94 21.7591C45.0142 21.8525 47.206 22.6288 49.2319 23.635C53.8029 25.9134 56.867 28.7094 57.2131 30.8944C57.2852 31.3544 57.2924 31.3544 56.7228 31.6131C56.3912 31.7713 56.2182 31.8 55.6558 31.8C55.2376 31.8 54.9925 31.8288 54.9925 31.8791C54.9925 32.0372 55.3602 33.2447 55.6846 34.1359C56.7805 37.1978 57.1266 38.4197 57.2492 39.7206C57.278 40.0153 57.2636 40.0513 57.1626 39.9938C56.9608 39.8859 55.4323 38.2831 53.8462 36.515C51.1209 33.4819 49.6429 32.0875 48.0495 31.0166C45.0863 29.04 42.2385 27.7391 39.6213 27.1713C38.0713 26.8334 37.7829 26.8047 35.9588 26.8047C33.7598 26.8047 33.1398 26.8909 29.8305 27.66C28.3237 28.0122 27.1485 28.2278 26.9755 28.1919C26.9034 28.1775 27.3071 27.4875 28.3021 25.9422C30.5587 22.4203 31.0129 21.795 32.116 20.7241C33.6805 19.2075 35.2234 18.5247 37.9054 18.1797C39.1888 18.0144 41.8492 17.9784 42.808 18.1078Z" fill="black"/>
<path d="M87.3282 18.2444C88.5899 18.4744 89.0801 18.5966 90.0463 18.9056C93.3844 19.9837 95.7492 22.0969 97.6309 25.6978C98.1644 26.7112 98.7772 28.0625 98.7268 28.1128C98.6691 28.1703 97.3858 27.9187 96.0952 27.6025C93.543 26.9628 92.7571 26.8406 90.897 26.7903C89.7362 26.7616 89.2388 26.7759 88.5899 26.8694C84.7831 27.4156 81.0773 29.2844 76.8741 32.7775C75.5403 33.8916 74.3579 35.1062 73.161 36.5797C71.0342 39.2247 70.58 39.7278 70.1834 39.9075C69.9888 39.9938 69.8013 40.0584 69.7725 40.0513C69.7004 40.0225 69.8806 38.9084 70.0969 38.01C70.2051 37.5787 70.5367 36.515 70.8323 35.6453C71.4812 33.7406 71.9066 32.4037 71.9714 32.0731L72.0219 31.8216L71.5172 31.7784C70.7818 31.7209 70.2483 31.5412 69.9455 31.2537C69.6932 31.0166 69.686 30.995 69.7148 30.5853C69.758 30.0247 70.0536 29.5287 70.8828 28.6591C72.2022 27.2791 74.2569 25.7769 76.9245 24.2603C79.3758 22.8731 82.2165 21.7375 83.2619 21.7375C83.5359 21.7375 83.5431 21.7303 83.5431 21.4859C83.5431 21.1841 83.5287 21.1841 82.3967 21.3422C80.1905 21.6584 76.391 22.6 74.5958 23.2756C73.8892 23.5416 73.8316 23.5128 74.1632 23.0528C75.2158 21.6081 78.4314 19.8544 81.9858 18.7906C84.3506 18.0791 85.6844 17.9425 87.3282 18.2444Z" fill="black"/>
<path d="M84.264 35.5375C87.7464 35.7028 90.1111 36.5797 91.8199 38.3334C92.1155 38.6353 92.6994 39.3325 93.1176 39.8859C94.0693 41.1366 94.6316 41.7116 95.194 41.9919C95.7708 42.2794 96.1169 42.3656 96.7585 42.3728C97.703 42.38 98.2149 42.0278 99.3684 40.5688C99.9236 39.8716 100.63 39.1097 100.63 39.2175C100.63 39.2391 100.529 39.5625 100.414 39.9363C100.133 40.77 99.8082 41.3666 99.1954 42.15C98.5033 43.0341 98.3086 43.3072 98.3302 43.3288C98.3447 43.3431 98.6691 43.5516 99.044 43.8031C100.039 44.4572 100.652 44.9747 101.099 45.5138C101.315 45.7725 101.495 46.0097 101.495 46.0384C101.495 46.1175 100.688 45.8228 100.205 45.5569C99.6929 45.2766 98.4312 44.4213 98.3591 44.3063C98.3158 44.2344 97.8184 44.565 97.8184 44.6656C97.8184 44.7016 98.1284 44.8884 98.5177 45.0969C100.025 45.9019 101.373 46.8794 101.618 47.3538C101.755 47.6197 102.007 48.3313 101.957 48.3313C101.913 48.3313 100.601 47.3753 99.5487 46.5775C98.3086 45.6431 97.6958 45.3844 96.3404 45.2406C95.3382 45.1328 93.6655 45.1544 93.1897 45.2766C92.9734 45.3341 92.2741 45.6216 91.6468 45.9163C91.0124 46.2109 90.1905 46.5488 89.8155 46.6638C88.4601 47.095 86.6793 47.3466 84.3866 47.44L83.1105 47.4903V46.3259C83.1105 45.6934 83.1177 45.1688 83.1249 45.1688C86.1602 44.9963 88.7773 44.6441 90.1616 44.2272C91.2863 43.8822 92.1659 43.2138 92.339 42.5741C92.9229 40.4178 88.4169 37.6578 83.8243 37.3559L83.1105 37.3128V36.3856C83.1105 35.8825 83.1177 35.4728 83.1249 35.48C83.1393 35.48 83.6512 35.5088 84.264 35.5375Z" fill="black"/>
<path d="M43.8895 36.4144V37.3344H42.9234C40.984 37.3344 39.7872 37.55 38.6625 38.0963C37.8045 38.5131 37.17 38.9947 36.2111 39.9506C35.2955 40.8634 34.899 41.5175 34.8269 42.1859C34.6394 43.9756 37.17 44.9172 42.7504 45.14L43.8895 45.1831V46.3331V47.4903L42.6062 47.44C39.3906 47.3106 37.8333 46.9872 35.5262 45.9738C33.9761 45.2981 33.5796 45.2119 31.9934 45.2047C30.8327 45.2047 30.5731 45.2263 30.0108 45.37C28.9437 45.6431 27.9488 46.1822 26.4203 47.325C25.6777 47.8784 25.0577 48.3313 25.036 48.3313C24.9856 48.3313 25.1802 47.8138 25.3821 47.4256C25.6561 46.8938 26.2833 46.3619 27.4874 45.6431C28.4318 45.0753 29.5421 44.3422 29.5421 44.2703C29.5421 44.2344 28.9509 44.4213 28.4823 44.6153C28.23 44.7159 27.7541 44.9675 27.4153 45.1688C26.7736 45.5569 26.0382 45.9091 25.6993 45.9881L25.4975 46.0384L25.7066 45.7294C26.0526 45.2263 26.8457 44.5291 27.7757 43.9109C28.2516 43.5947 28.6553 43.3288 28.6698 43.3216C28.6842 43.3144 28.4535 42.9766 28.1579 42.5669C27.4729 41.6181 27.3432 41.4097 27.1341 40.8491C26.9538 40.3603 26.8096 39.5481 26.925 39.6703C26.9683 39.7063 27.2999 40.1088 27.6604 40.5544C28.4102 41.46 29.1312 42.0638 29.744 42.2938C30.0684 42.4231 30.2631 42.4447 30.6741 42.4231C31.7483 42.3513 32.5125 41.7619 33.8896 39.9506C34.7259 38.8438 35.8795 37.6578 36.6077 37.1475C38.0857 36.1125 39.8304 35.6525 42.6494 35.5447L43.8895 35.5016V36.4144Z" fill="black"/>
<path d="M81.7406 36.6516C81.7406 37.0253 81.719 37.3344 81.6974 37.3344C81.5316 37.3344 79.1596 37.8016 78.7125 37.9238C77.9699 38.1178 77.0904 38.5563 76.6506 38.9444C76.3117 39.2391 75.771 39.965 75.8359 40.0225C75.8503 40.0369 76.1098 39.9075 76.4054 39.7278C77.6095 39.0091 78.5323 38.6641 79.8301 38.4341C80.4068 38.3406 81.0125 38.3119 82.8581 38.3119C84.9994 38.3047 85.2229 38.3191 85.9583 38.47C88.0708 38.9156 89.9814 39.8284 91.0989 40.9281C91.8054 41.6253 92.0001 42.1356 91.6757 42.4303C91.1782 42.8975 88.5971 43.6091 85.8141 44.0475C83.0889 44.4716 81.3513 44.5147 79.2172 44.2128C77.559 43.9756 76.218 43.8031 75.9512 43.8031C75.7854 43.8031 75.7566 43.8319 75.7566 44.0116C75.7566 44.2128 75.7638 44.2128 76.2396 44.2631C76.5136 44.2919 77.5374 44.4716 78.5323 44.6656C79.52 44.8597 80.515 45.0394 80.7313 45.0609C80.9476 45.0825 81.2648 45.1184 81.4306 45.14L81.7406 45.1759V46.0744V46.9656H81.2143C80.1112 46.9656 78.1862 46.6638 76.8669 46.2756C74.4083 45.5713 72.8943 44.5866 71.6326 42.8975C71.5677 42.8041 71.8561 41.7116 72.1517 40.9425C72.815 39.2175 74.2569 38.0747 77.0183 37.0828C78.7125 36.4719 80.7241 35.9687 81.4595 35.9687H81.7406V36.6516Z" fill="black"/>
<path d="M46.3769 36.0191C47.6602 36.1269 49.0445 36.4288 50.198 36.8313C53.4064 37.9669 55.49 40.3603 55.1511 42.5309C54.7546 45.0969 51.5174 46.7644 46.5715 46.9441L45.3315 46.9872V46.0816C45.3315 45.3916 45.3531 45.1688 45.4252 45.1688C45.7568 45.1688 46.9681 44.9747 48.3596 44.7016C49.6861 44.4428 50.9623 44.2344 51.2579 44.2344C51.2939 44.2344 51.3155 44.1338 51.3155 44.0188C51.3155 43.8175 51.2939 43.8031 51.056 43.8031C50.9118 43.8031 49.8808 43.9325 48.7633 44.0906C45.4757 44.5506 45.3603 44.5578 43.2406 44.5506C41.5247 44.5506 41.1354 44.5291 40.3567 44.3925C39.2681 44.1984 38.2875 43.9397 37.5522 43.645C36.9537 43.415 35.5839 42.725 35.3243 42.5238L35.1657 42.4016L35.5334 41.8409C36.4635 40.4322 37.9487 39.3756 39.8232 38.8006C40.9984 38.4484 41.8275 38.3406 43.7814 38.2903C47.4223 38.2113 49.0228 38.6138 51.1786 40.1591L51.7337 40.5544L51.9572 40.4178C52.397 40.1519 52.2168 39.9434 51.056 39.3613C49.5708 38.6209 47.8909 37.9741 46.6004 37.6506C46.1966 37.55 45.7496 37.435 45.5982 37.3991L45.3315 37.3272V36.6516V35.9688L45.7064 35.9831C45.9155 35.9903 46.2183 36.0047 46.3769 36.0191Z" fill="black"/>
<path d="M68.2584 39.0594C68.4747 39.2175 68.6838 39.4044 68.7199 39.4762C68.7631 39.5481 68.7992 40.3891 68.8064 41.4312C68.828 45.0897 69.4048 47.8209 70.8251 50.9403C71.5749 52.5934 72.9376 54.8 74.1848 56.3813C76.3478 59.1269 76.838 59.9966 77.0543 61.5059C77.1552 62.1959 77.0831 63.1088 76.8885 63.6406C76.7803 63.9353 76.6217 64.1509 76.2757 64.4888C76.0233 64.7331 75.7926 64.9272 75.7782 64.9056C75.7638 64.8913 75.8359 64.4959 75.9512 64.0216C76.1026 63.3603 76.1459 62.9938 76.1531 62.3469C76.1531 61.5419 76.1459 61.5059 75.9152 61.0819C75.6196 60.5428 75.2302 60.1044 73.262 58.0703C71.7047 56.4603 71.337 56.1656 70.5655 55.8709L70.1834 55.7272L70.2339 56.6472C70.2627 57.1503 70.3493 58.2644 70.4214 59.1125C70.7674 62.9003 70.5079 64.5678 69.3687 65.7969C68.4098 66.8247 67.1698 67.3134 64.7184 67.6297C64.0696 67.7088 61.7408 67.6728 61.1208 67.5722C58.619 67.1553 57.141 65.7466 56.6003 63.2813C56.4056 62.3756 56.42 59.7809 56.6363 57.905C56.7229 57.1359 56.7949 56.3309 56.7949 56.1153V55.72L56.3191 55.9859C55.5116 56.4244 54.7185 57.0713 53.5073 58.2788C52.2528 59.5366 51.5391 60.4278 51.1209 61.2688C50.8685 61.7719 50.8469 61.8509 50.8469 62.4547C50.8541 62.9291 50.8902 63.2238 51.0127 63.5688C51.1714 64.0431 51.33 64.9344 51.2507 64.9344C51.1786 64.9344 50.4215 64.1366 50.2413 63.8778C49.8159 63.2597 49.6934 62.275 49.9169 61.3478C50.0683 60.7081 50.7532 59.3209 51.3804 58.3722C51.6688 57.9409 52.3898 56.9203 52.9954 56.1081C54.8844 53.5422 55.4756 52.5934 56.1317 51.0769C56.6652 49.8191 57.1699 48.2953 57.4799 46.9297C58.0567 44.4356 58.2008 43.2066 58.136 41.3234C58.0855 39.7278 58.1215 39.5841 58.7127 39.0666L59.066 38.7575L59.1165 39.8212C59.1453 40.4106 59.2463 41.7331 59.3328 42.7609C59.477 44.3566 59.4986 45.0753 59.4986 47.6844C59.4914 49.3878 59.4553 51.2637 59.4049 51.925C59.3544 52.5791 59.2318 54.1316 59.1381 55.375C58.8065 59.5438 58.7416 60.6434 58.6911 62.5697L58.6479 64.4888L58.9579 64.6828C59.4265 64.9775 60.1403 65.2794 60.9045 65.5022C62.022 65.8328 62.5627 65.9047 63.9326 65.8975C65.0501 65.8903 65.2736 65.8688 65.9008 65.7034C67.1626 65.3656 68.0205 64.7619 68.4387 63.8994C68.7847 63.1878 68.7775 62.5984 68.3738 60.5284L68.0349 58.825L67.7465 53.8441C67.3572 47.0447 67.3428 46.5272 67.523 44.8812C67.7537 42.84 67.7682 42.6028 67.8186 40.6191L67.8619 38.7647L68.2584 39.0594Z" fill="black"/>
<path d="M79.5561 59.3641C79.6787 59.4144 80.2843 59.7666 80.8899 60.1403C84.0838 62.1025 87.2128 63.1878 91.654 63.8634C92.4976 63.9928 93.99 63.9713 94.6677 63.8275C96.4485 63.4394 97.7463 62.7278 99.7073 61.0531C100.176 60.6506 100.58 60.3344 100.594 60.3416C100.645 60.3991 100.414 61.7 100.234 62.4259C99.1233 66.7744 95.742 73.5306 91.4594 79.9419C89.3037 83.1691 87.7391 85.1959 85.5979 87.5391C85.086 88.0925 84.264 89.0269 83.7738 89.6234C82.7572 90.8309 81.993 91.6144 81.3297 92.1247C81.0846 92.3116 80.8683 92.4625 80.8466 92.4625C80.789 92.4625 80.9187 92.0816 81.1278 91.6719C81.236 91.4563 81.6397 90.8525 82.0218 90.3422C83.1249 88.8688 86.29 84.0675 87.4219 82.1484C87.9771 81.2141 89.0225 79.3238 89.0225 79.2663C89.0225 79.2375 88.9504 79.2375 88.8567 79.2663C88.4962 79.3525 87.6815 79.87 86.6288 80.6894C84.4443 82.3784 83.5287 82.9031 81.892 83.3775C81.1711 83.5859 80.0247 83.7656 79.3758 83.7656C78.9361 83.7656 78.9288 83.7656 78.9288 83.5644C78.9288 83.3631 78.9361 83.3631 79.5993 83.2769C80.9115 83.1116 82.2597 82.6156 83.7017 81.7603C87.1047 79.7334 90.7817 75.8306 92.9013 71.9781C93.1537 71.5181 95.8213 65.4088 95.9222 65.0638C95.9582 64.9559 95.9294 64.9488 95.6843 65.0206C94.8912 65.2363 94.5163 65.5309 94.0981 66.2784C93.9539 66.5516 93.3195 67.5291 92.6994 68.4563C92.0794 69.3834 91.171 70.7778 90.6807 71.5469C88.0636 75.6725 87.0903 76.8441 85.6844 77.5413C84.3361 78.2169 83.4638 78.3175 79.1812 78.3103C77.4364 78.3103 75.223 78.2888 74.2569 78.26L72.5122 78.2097V78.4756V78.7344H73.1899H73.8676L73.846 79.18L73.8171 79.6328L73.399 79.7191C72.1445 79.9922 69.859 80.2581 67.6096 80.3947C64.8987 80.56 59.9168 80.4881 57.2636 80.2366C56.2831 80.1503 54.0841 79.8413 53.565 79.7191L53.1829 79.6328L53.154 79.18L53.1324 78.7344H53.8101H54.4878V78.4756V78.2169L52.6998 78.26C49.4266 78.3534 44.56 78.3391 43.8174 78.2384C40.8759 77.8431 39.78 76.9447 36.9393 72.6394C35.5551 70.5334 33.0749 66.645 32.8154 66.1634C32.4765 65.5381 32.0367 65.2219 31.1499 64.9703C31.0129 64.9344 31.049 65.0494 31.4816 66.1347C32.2746 68.1041 34.351 72.4238 35.1657 73.8109C36.3409 75.7947 37.5954 77.2825 39.1311 78.4828C39.4267 78.72 39.9818 79.1656 40.3568 79.4819C41.0849 80.0928 42.1664 80.8188 43.3848 81.5159C45.2738 82.6013 46.5067 83.0972 47.8044 83.2984C48.0495 83.3416 48.0784 83.3631 48.0568 83.5356C48.0351 83.7081 47.9991 83.7297 47.7323 83.7513C47.2781 83.7872 45.8506 83.5716 45.1368 83.3631C43.3921 82.86 42.2745 82.1916 39.7583 80.1503C38.5687 79.1872 37.9054 78.6913 37.9054 78.7631C37.9054 78.7847 37.9847 79.0075 38.0785 79.2519C38.8283 81.2428 42.4259 87.0072 44.7907 90.0259C45.1512 90.4788 45.5333 91.0106 45.6415 91.1903C45.8866 91.6 46.2183 92.4625 46.139 92.4625C45.9515 92.4625 43.2262 89.5803 41.3373 87.3953C40.4433 86.3531 36.8168 81.6813 35.6272 80.0281C33.8968 77.6275 31.5969 73.8038 30.0901 70.8281C28.8572 68.3988 28.2732 66.8966 27.5883 64.4169C27.0836 62.5697 26.889 61.9588 26.5862 61.2903C26.4636 61.0316 26.3771 60.8088 26.3915 60.7944C26.3987 60.7872 26.7808 61.0172 27.235 61.3119C29.1889 62.5769 31.0562 63.3244 33.1831 63.6838C34.2141 63.8634 36.514 63.8634 37.581 63.6838C40.126 63.2669 42.4043 62.4044 45.0863 60.8375C46.4922 60.0181 47.1483 59.7091 47.7684 59.5725C48.3524 59.4503 48.6768 59.5006 48.8642 59.7378C49.0517 59.9822 49.0445 60.1619 48.8282 60.5931C48.4461 61.355 47.3286 62.2534 45.8722 62.9578C43.9256 63.9066 39.8449 65.0278 37.3431 65.2938C36.9033 65.3441 36.5356 65.3944 36.5356 65.4088C36.5356 65.5453 38.3885 67.9459 39.47 69.2109C40.7677 70.7347 41.7266 71.9494 42.6639 73.2288L42.9739 73.6528L45.007 73.6097C49.7943 73.4947 52.5773 73.0778 53.839 72.28C54.769 71.6978 56.521 69.6853 57.3429 68.2766C57.5376 67.9388 57.7178 67.6656 57.7466 67.6656C57.7755 67.6656 58.9074 67.9459 60.27 68.2909C63.3847 69.0672 63.6442 69.0959 65.0861 68.715C67.7033 68.025 69.2245 67.6656 69.2678 67.7159C69.2894 67.7447 69.6643 68.2622 70.0897 68.8588C73.0169 72.97 74.6679 73.6313 81.993 73.6241H84.0117L84.5308 72.9269C85.0715 72.1938 85.8502 71.2738 86.7802 70.2531C87.2993 69.6853 90.4428 65.4591 90.3851 65.4088C90.3707 65.3944 90.0174 65.3441 89.5993 65.3009C88.078 65.1284 85.6772 64.5822 83.8315 63.9856C81.3008 63.1663 79.4696 62.2534 78.6909 61.4269C78.1646 60.8519 78.0853 60.4925 78.3665 59.9247C78.6693 59.3209 79.0442 59.1413 79.5561 59.3641ZM62.9449 72.0572C62.4834 72.2728 61.712 73.0634 61.0559 73.9906C60.7603 74.4075 60.1763 75.1981 59.7509 75.7516C58.9218 76.8441 58.4099 77.5844 57.999 78.2816L57.7394 78.7344H63.5H69.2606L69.1308 78.4253C68.4891 76.9447 65.4394 73.0059 64.257 72.1363C63.7668 71.7769 63.5577 71.7625 62.9449 72.0572Z" fill="black"/>
<path d="M73.4134 65.0566C73.399 65.1284 73.3485 65.3944 73.3052 65.6531C73.161 66.4294 72.8438 66.8894 72.267 67.1266C72.0291 67.2272 70.032 67.6656 69.8013 67.6656C69.6715 67.6656 69.8806 66.7025 70.0969 66.2497C70.306 65.8256 70.6737 65.4806 71.1063 65.2866C71.4668 65.1284 72.5338 64.9344 73.0529 64.9344C73.3773 64.9344 73.435 64.9559 73.4134 65.0566Z" fill="black"/>
<path d="M55.6053 65.1356C55.8 65.2003 56.2542 65.4519 56.6147 65.6891L57.2636 66.1203L57.2852 66.8966C57.2996 67.3638 57.278 67.6656 57.2347 67.6656C57.1915 67.6656 56.6724 67.5722 56.074 67.45C54.9276 67.22 54.5743 67.0906 54.2571 66.7528C54.0264 66.5156 53.6948 65.8113 53.6731 65.5309C53.6443 65.0781 54.7474 64.8553 55.6053 65.1356Z" fill="black"/>
<path d="M68.2584 86.195C68.2584 86.4106 67.797 87.2947 67.3067 88.0063C66.4993 89.185 66.4993 89.1778 66.5209 90.3781C66.5353 91.7653 66.629 92.4338 66.9607 93.7203C67.1121 94.3097 67.2779 95.0716 67.3284 95.4094C67.5879 97.1991 66.9895 102.662 66.1604 106.011C65.8936 107.103 65.3601 108.634 65.0213 109.296L64.6824 109.964L63.5216 109.986L62.3537 110L62.1446 109.698C61.6399 108.965 61.2001 107.916 60.9694 106.888C60.8036 106.148 60.1258 101.928 59.8951 100.225C59.5707 97.7884 59.5851 97.0481 60.0249 94.6547C60.6089 91.4922 60.7315 90.5219 60.6233 89.8894C60.5224 89.2641 60.2917 88.8041 59.6788 88.0063C59.167 87.3378 58.6695 86.4466 58.6695 86.195C58.6695 86.0728 58.9146 86.0656 63.464 86.0656C68.0133 86.0656 68.2584 86.0728 68.2584 86.195Z" fill="black"/>
</g>
</g>
<defs>
<clipPath id="clip0_1_2">
<rect width="128" height="128" fill="white"/>
</clipPath>
<clipPath id="clip1_1_2">
<rect width="77" height="92" fill="white" transform="matrix(-1 0 0 1 102 18)"/>
</clipPath>
</defs>
</svg>
